<svg width="24" height="24" viewBox="0 0 24 24" fill="none" xmlns="http://www.w3.org/2000/svg">
  <path fill-rule="evenodd" clip-rule="evenodd" d="M12 0C5.373 0 0 5.373 0 12c0 5.302 3.438 9.8 8.205 11.385.6.11.82-.258.82-.577 0-.285-.01-1.042-.015-2.043-3.338.724-4.042-1.613-4.042-1.613-.546-1.384-1.333-1.753-1.333-1.753-1.088-.744.083-.729.083-.729 1.204.085 1.837 1.236 1.837 1.236 1.07 1.83 2.81 1.302 3.496.998.108-.772.417-1.302.76-1.604-2.665-.298-5.466-1.332-5.466-5.93 0-1.31.468-2.384 1.236-3.227-.125-.302-.536-1.526.117-3.176 0 0 1.007-.322 3.3 1.23a11.59 11.59 0 013.023-.405c1.026.007 2.06.138 3.023.405 2.29-1.552 3.295-1.23 3.295-1.23.656 1.65.245 2.874.12 3.176.77.843 1.234 1.917 1.234 3.227 0 4.61-2.806 5.628-5.478 5.92.43.372.813 1.104.813 2.224 0 1.606-.015 2.896-.015 3.286 0 .319.214.693.825.576C20.57 21.794 24 17.297 24 12c0-6.627-5.373-12-12-12z" fill="white"/>
</svg>
